# xmcd
#
# Track frame offsets:
#	150
#	19486
#	35996
#	53784
#	70673
#	90156
#	108381
#	123847
#	143759
#	161129
#	182030
#	221283
#	238106
#	253825
#	269738
#	272507
#	275930
#
# Disc length: 3691 seconds
#
# Revision: 0
# Processed by: cddbd v1.5.2PL0 Copyright (c) Steve Scherf et al.
# Submitted via: dBpowerAMP V4.0
#
DISCID=040e6911
DTITLE=Steven Seagal - Mojo Priest
DYEAR=2006
DGENRE=Blues
TTITLE0=Somewhere In Between
TTITLE1=Love Doctor
TTITLE2=Dark Angel
TTITLE3=Gunfire In A Juke Joint
TTITLE4=My Time Is Numbered
TTITLE5=Alligator Ass
TTITLE6=BBQ
TTITLE7=Hoochie Koochie Man
TTITLE8=Talk To My Ass
TTITLE9=Dust My Broom
TTITLE10=Slow Boat To China
TTITLE11=She Dat Pretty
TTITLE12=Red Rooster
TTITLE13=Shake
TTITLE14=Rambling
TTITLE15=Rambling
TTITLE16=Rambling
EXTD=
EXTT0=
EXTT1=
EXTT2=
EXTT3=
EXTT4=
EXTT5=
EXTT6=
EXTT7=
EXTT8=
EXTT9=
EXTT10=
EXTT11=
EXTT12=
EXTT13=
EXTT14=
EXTT15=
EXTT16=
PLAYORDER=
